{
	"buffers":[{
		"uri":"data:application/octet-stream;base64,",
		"byteLength":94864
	}],
	"asset":{
		"version":"2.0",
		"generator":"Created using the official Cinema 4D glTF Exporter 1.000x284978"
	},
	"materials":[{
		"pbrMetallicRoughness":{
			"baseColorFactor":[0.8,
			0.8,
			0.8,
			1.0],
			"metallicFactor":1.0,
			"roughnessFactor":0.14
		},
		"emissiveFactor":[0.0,
		0.0,
		0.0],
		"alphaMode":"OPAQUE",
		"doubleSided":false,
		"name":"Mat"
	}],
	"scenes":[{
		"nodes":[0]
	}],
	"accessors":[{
		"bufferView":0,
		"type":"SCALAR",
		"componentType":5123,
		"count":11400,
		"byteOffset":0,
		"min":[0],
		"max":[2251]
	},
	{
		"bufferView":1,
		"type":"VEC3",
		"componentType":5126,
		"count":2252,
		"byteOffset":0,
		"min":[-276.1025390625,
		-87.47783660888672,
		-48.96714401245117],
		"max":[276.582763671875,
		87.47783660888672,
		46.08104705810547]
	},
	{
		"bufferView":1,
		"type":"VEC3",
		"componentType":5126,
		"count":2252,
		"byteOffset":12,
		"min":[-0.9967772364616394,
		-0.999938428401947,
		-0.999966561794281],
		"max":[0.9996965527534485,
		0.9998967051506043,
		0.9997460246086121]
	},
	{
		"bufferView":1,
		"type":"VEC2",
		"componentType":5126,
		"count":2252,
		"byteOffset":24,
		"min":[0.06329015642404556,
		0.03282743692398071],
		"max":[0.974994421005249,
		0.8262170553207398]
	}],
	"nodes":[{
		"name":"bamboo shark",
		"children":[1]
	},
	{
		"name":"bamboo shark",
		"translation":[0.0,
		59.439510345458987,
		-3.639620529738213e-15],
		"rotation":[-0.7071067690849304,
		0.0,
		0.0,
		-0.7071067690849304],
		"scale":[1.0,
		1.0,
		1.0],
		"mesh":0
	}],
	"meshes":[{
		"name":"bamboo shark",
		"primitives":[{
			"attributes":{
				"POSITION":1,
				"NORMAL":2,
				"TEXCOORD_0":3
			},
			"indices":0,
			"material":0
		}]
	}],
	"bufferViews":[{
		"byteOffset":0,
		"buffer":0,
		"byteLength":22800,
		"target":34963
	},
	{
		"byteOffset":22800,
		"buffer":0,
		"byteLength":72064,
		"target":34962,
		"byteStride":32
	}]
}