{
	"asset":{
		"version":"2.0",
		"generator":"Created using the official Cinema 4D glTF Exporter 1.000x284978"
	},
	"materials":[{
		"pbrMetallicRoughness":{
			"baseColorFactor":[0.5444999999999992,
			0.66,
			0.19799999999999996,
			1.0],
			"metallicFactor":0.0,
			"roughnessFactor":0.5
		},
		"emissiveFactor":[0.0,
		0.0,
		0.0],
		"alphaMode":"OPAQUE",
		"doubleSided":false,
		"name":"19421_Puffer_fish_v1"
	},
	{
		"pbrMetallicRoughness":{
			"baseColorFactor":[0.8,
			0.10400000000000001,
			0.10400000000000001,
			1.0],
			"metallicFactor":0.0,
			"roughnessFactor":0.5
		},
		"emissiveFactor":[0.0,
		0.0,
		0.0],
		"alphaMode":"OPAQUE",
		"doubleSided":false,
		"name":"Mat.1"
	},
	{
		"pbrMetallicRoughness":{
			"baseColorFactor":[0.0,
			0.0,
			0.0,
			1.0],
			"metallicFactor":0.0,
			"roughnessFactor":0.5
		},
		"emissiveFactor":[0.0,
		0.0,
		0.0],
		"alphaMode":"OPAQUE",
		"doubleSided":false,
		"name":"Mat"
	}],
	"scenes":[{
		"nodes":[0]
	}],
	"nodes":[{
		"name":"Default",
		"children":[1,
		2,
		3,
		4,
		5]
	},
	{
		"name":"Default-19421_Puffer_fish_v1",
		"mesh":0
	},
	{
		"name":"Default-Mat.1",
		"mesh":1
	},
	{
		"name":"Default-Mat",
		"mesh":2
	},
	{
		"name":"Default-Mat",
		"mesh":3
	},
	{
		"name":"Default-Mat",
		"mesh":4
	}],
	"meshes":[{
		"primitives":[{
			"attributes":{
				"POSITION":1,
				"NORMAL":2
			},
			"indices":0,
			"material":0
		}],
		"name":"Default-19421_Puffer_fish_v1"
	},
	{
		"primitives":[{
			"attributes":{
				"POSITION":4,
				"NORMAL":5
			},
			"indices":3,
			"material":1
		}],
		"name":"Default-Mat.1"
	},
	{
		"primitives":[{
			"attributes":{
				"POSITION":7,
				"NORMAL":8
			},
			"indices":6,
			"material":2
		}],
		"name":"Default-Mat"
	},
	{
		"primitives":[{
			"attributes":{
				"POSITION":10,
				"NORMAL":11
			},
			"indices":9,
			"material":2
		}],
		"name":"Default-Mat"
	},
	{
		"primitives":[{
			"attributes":{
				"POSITION":13,
				"NORMAL":14
			},
			"indices":12,
			"material":2
		}],
		"name":"Default-Mat"
	}],
	"accessors":[{
		"bufferView":0,
		"type":"SCALAR",
		"componentType":5123,
		"count":200178,
		"byteOffset":0,
		"min":[0],
		"max":[34350]
	},
	{
		"bufferView":1,
		"type":"VEC3",
		"componentType":5126,
		"count":34351,
		"byteOffset":0,
		"min":[-5.0121002197265629,
		-11.17199993133545,
		-0.6327999830245972],
		"max":[4.953499794006348,
		11.216300010681153,
		8.634400367736817]
	},
	{
		"bufferView":1,
		"type":"VEC3",
		"componentType":5126,
		"count":34351,
		"byteOffset":12,
		"min":[-0.9999688267707825,
		-0.999750018119812,
		-0.9999688267707825],
		"max":[0.9999688267707825,
		0.9996563196182251,
		0.9999688267707825]
	},
	{
		"bufferView":2,
		"type":"SCALAR",
		"componentType":5123,
		"count":504,
		"byteOffset":0,
		"min":[0],
		"max":[117]
	},
	{
		"bufferView":3,
		"type":"VEC3",
		"componentType":5126,
		"count":118,
		"byteOffset":0,
		"min":[-3.2483999729156496,
		8.579299926757813,
		3.7300000190734865],
		"max":[3.189500093460083,
		9.412799835205079,
		4.629899978637695]
	},
	{
		"bufferView":3,
		"type":"VEC3",
		"componentType":5126,
		"count":118,
		"byteOffset":12,
		"min":[-0.9989375472068787,
		-0.10750000178813935,
		-0.3917500078678131],
		"max":[0.9975625276565552,
		0.7116875052452087,
		0.7033125162124634]
	},
	{
		"bufferView":4,
		"type":"SCALAR",
		"componentType":5123,
		"count":13038,
		"byteOffset":0,
		"min":[0],
		"max":[3008]
	},
	{
		"bufferView":5,
		"type":"VEC3",
		"componentType":5126,
		"count":3009,
		"byteOffset":0,
		"min":[-4.917300224304199,
		-10.626799583435059,
		-0.29409998655319216],
		"max":[4.953499794006348,
		9.185700416564942,
		8.140299797058106]
	},
	{
		"bufferView":5,
		"type":"VEC3",
		"componentType":5126,
		"count":3009,
		"byteOffset":12,
		"min":[-0.9999688267707825,
		-0.9499375224113464,
		-0.9999688267707825],
		"max":[0.9999688267707825,
		0.8598750233650208,
		0.9900000691413879]
	},
	{
		"bufferView":6,
		"type":"SCALAR",
		"componentType":5123,
		"count":2778,
		"byteOffset":0,
		"min":[0],
		"max":[649]
	},
	{
		"bufferView":7,
		"type":"VEC3",
		"componentType":5126,
		"count":650,
		"byteOffset":0,
		"min":[-1.686400055885315,
		0.4828999936580658,
		4.438499927520752],
		"max":[1.976699948310852,
		10.40060043334961,
		6.133900165557861]
	},
	{
		"bufferView":7,
		"type":"VEC3",
		"componentType":5126,
		"count":650,
		"byteOffset":12,
		"min":[-0.8159688115119934,
		-0.7037500143051148,
		0.413875013589859],
		"max":[0.9063438177108765,
		0.7558437585830689,
		0.9999688267707825]
	},
	{
		"bufferView":8,
		"type":"SCALAR",
		"componentType":5123,
		"count":366,
		"byteOffset":0,
		"min":[0],
		"max":[83]
	},
	{
		"bufferView":9,
		"type":"VEC3",
		"componentType":5126,
		"count":84,
		"byteOffset":0,
		"min":[-1.9172999858856202,
		6.570700168609619,
		5.459199905395508],
		"max":[-1.0967999696731568,
		7.6605000495910648,
		5.806600093841553]
	},
	{
		"bufferView":9,
		"type":"VEC3",
		"componentType":5126,
		"count":84,
		"byteOffset":12,
		"min":[-0.49640628695487978,
		-0.07575000077486038,
		0.8051875233650208],
		"max":[0.21940626204013825,
		0.44718751311302187,
		0.9995625615119934]
	}],
	"bufferViews":[{
		"buffer":0,
		"byteOffset":0,
		"byteLength":400356,
		"target":34963
	},
	{
		"buffer":0,
		"byteOffset":400356,
		"byteLength":824424,
		"target":34962,
		"byteStride":24
	},
	{
		"buffer":1,
		"byteOffset":0,
		"byteLength":1008,
		"target":34963
	},
	{
		"buffer":1,
		"byteOffset":1008,
		"byteLength":2832,
		"target":34962,
		"byteStride":24
	},
	{
		"buffer":2,
		"byteOffset":0,
		"byteLength":26076,
		"target":34963
	},
	{
		"buffer":2,
		"byteOffset":26076,
		"byteLength":72216,
		"target":34962,
		"byteStride":24
	},
	{
		"buffer":3,
		"byteOffset":0,
		"byteLength":5556,
		"target":34963
	},
	{
		"buffer":3,
		"byteOffset":5556,
		"byteLength":15600,
		"target":34962,
		"byteStride":24
	},
	{
		"buffer":4,
		"byteOffset":0,
		"byteLength":732,
		"target":34963
	},
	{
		"buffer":4,
		"byteOffset":732,
		"byteLength":2016,
		"target":34962,
		"byteStride":24
	}],
	"buffers":[{
		"uri":"data:application/octet-stream;base64,",
		"byteLength":1224780
	},
	{
		"uri":"data:application/octet-stream;base64,",
		"byteLength":3840
	},
	{
		"uri":"data:application/octet-stream;base64,",
		"byteLength":98292
	},
	{
		"uri":"data:application/octet-stream;base64,",
		"byteLength":21156
	},
	{
		"uri":"data:application/octet-stream;base64,",
		"byteLength":2748
	}]
}