{
	"asset":{
		"version":"2.0",
		"generator":"Created using the official Cinema 4D glTF Exporter 1.000x284978"
	},
	"scenes":[{
		"nodes":[0]
	}],
	"nodes":[{
		"name":"Default",
		"translation":[-0.07999998331069946,
		3.2273824214935304,
		0.14733216166496278],
		"rotation":[0.7071067690849304,
		0.0,
		0.0,
		-0.7071067690849304],
		"scale":[1.0,
		1.0,
		1.0],
		"children":[1,
		2,
		3,
		4,
		5,
		6,
		7,
		8]
	},
	{
		"name":"Default-13003_Auriga_Butterflyfish",
		"mesh":0
	},
	{
		"name":"Default-Mat",
		"mesh":1
	},
	{
		"name":"Default-Mat",
		"mesh":2
	},
	{
		"name":"Default-Mat",
		"mesh":3
	},
	{
		"name":"Default-Mat",
		"mesh":4
	},
	{
		"name":"Default-Mat",
		"mesh":5
	},
	{
		"name":"Default-Mat",
		"mesh":6
	},
	{
		"name":"Default-Mat",
		"mesh":7
	}],
	"materials":[{
		"pbrMetallicRoughness":{
			"baseColorFactor":[0.86,
			0.7947833333333337,
			0.07739999999999997,
			1.0],
			"metallicFactor":0.0,
			"roughnessFactor":0.5
		},
		"emissiveFactor":[0.0,
		0.0,
		0.0],
		"alphaMode":"OPAQUE",
		"doubleSided":false,
		"name":"13003_Auriga_Butterflyfish"
	},
	{
		"pbrMetallicRoughness":{
			"baseColorFactor":[0.0,
			0.0,
			0.0,
			1.0],
			"metallicFactor":0.0,
			"roughnessFactor":0.5
		},
		"emissiveFactor":[0.0,
		0.0,
		0.0],
		"alphaMode":"OPAQUE",
		"doubleSided":false,
		"name":"Mat"
	}],
	"meshes":[{
		"name":"Default-13003_Auriga_Butterflyfish",
		"primitives":[{
			"attributes":{
				"POSITION":1,
				"NORMAL":2,
				"TEXCOORD_0":3
			},
			"indices":0,
			"material":0
		}]
	},
	{
		"name":"Default-Mat",
		"primitives":[{
			"attributes":{
				"POSITION":5,
				"NORMAL":6,
				"TEXCOORD_0":7
			},
			"indices":4,
			"material":1
		}]
	},
	{
		"name":"Default-Mat",
		"primitives":[{
			"attributes":{
				"POSITION":9,
				"NORMAL":10,
				"TEXCOORD_0":11
			},
			"indices":8,
			"material":1
		}]
	},
	{
		"name":"Default-Mat",
		"primitives":[{
			"attributes":{
				"POSITION":13,
				"NORMAL":14,
				"TEXCOORD_0":15
			},
			"indices":12,
			"material":1
		}]
	},
	{
		"name":"Default-Mat",
		"primitives":[{
			"attributes":{
				"POSITION":17,
				"NORMAL":18,
				"TEXCOORD_0":19
			},
			"indices":16,
			"material":1
		}]
	},
	{
		"name":"Default-Mat",
		"primitives":[{
			"attributes":{
				"POSITION":21,
				"NORMAL":22,
				"TEXCOORD_0":23
			},
			"indices":20,
			"material":1
		}]
	},
	{
		"name":"Default-Mat",
		"primitives":[{
			"attributes":{
				"POSITION":25,
				"NORMAL":26,
				"TEXCOORD_0":27
			},
			"indices":24,
			"material":1
		}]
	},
	{
		"name":"Default-Mat",
		"primitives":[{
			"attributes":{
				"POSITION":29,
				"NORMAL":30,
				"TEXCOORD_0":31
			},
			"indices":28,
			"material":1
		}]
	}],
	"accessors":[{
		"bufferView":0,
		"type":"SCALAR",
		"componentType":5123,
		"count":88440,
		"byteOffset":0,
		"min":[0],
		"max":[16721]
	},
	{
		"bufferView":1,
		"type":"VEC3",
		"componentType":5126,
		"count":16722,
		"byteOffset":0,
		"min":[-13.670860290527344,
		-1.799047827720642,
		-3.181529998779297],
		"max":[11.386808395385743,
		1.9439046382904053,
		9.719727516174317]
	},
	{
		"bufferView":1,
		"type":"VEC3",
		"componentType":5126,
		"count":16722,
		"byteOffset":12,
		"min":[-0.9995625615119934,
		-0.9999688267707825,
		-0.9999688267707825],
		"max":[0.9998125433921814,
		0.9999688267707825,
		0.9999688267707825]
	},
	{
		"bufferView":1,
		"type":"VEC2",
		"componentType":5126,
		"count":16722,
		"byteOffset":24,
		"min":[0.0020000000949949028,
		0.010900000110268593],
		"max":[0.9961000084877014,
		0.9972000122070313]
	},
	{
		"bufferView":2,
		"type":"SCALAR",
		"componentType":5123,
		"count":1056,
		"byteOffset":0,
		"min":[0],
		"max":[269]
	},
	{
		"bufferView":3,
		"type":"VEC3",
		"componentType":5126,
		"count":270,
		"byteOffset":0,
		"min":[4.5212507247924809,
		-1.4978766441345215,
		-1.1756316423416138],
		"max":[9.17160415649414,
		1.4978766441345215,
		7.20396614074707]
	},
	{
		"bufferView":3,
		"type":"VEC3",
		"componentType":5126,
		"count":270,
		"byteOffset":12,
		"min":[0.04656250402331352,
		-0.9989063143730164,
		-0.9307500720024109],
		"max":[0.8398438096046448,
		0.9989063143730164,
		0.6718750596046448]
	},
	{
		"bufferView":3,
		"type":"VEC2",
		"componentType":5126,
		"count":270,
		"byteOffset":24,
		"min":[0.08380000293254852,
		0.07999999821186066],
		"max":[0.9139000177383423,
		0.9246000051498413]
	},
	{
		"bufferView":4,
		"type":"SCALAR",
		"componentType":5123,
		"count":12,
		"byteOffset":0,
		"min":[0],
		"max":[5]
	},
	{
		"bufferView":5,
		"type":"VEC3",
		"componentType":5126,
		"count":6,
		"byteOffset":0,
		"min":[-8.682303428649903,
		-0.07621350139379502,
		-0.31774380803108218],
		"max":[-8.41540241241455,
		-0.06383520364761353,
		-0.08746650069952011]
	},
	{
		"bufferView":5,
		"type":"VEC3",
		"componentType":5126,
		"count":6,
		"byteOffset":12,
		"min":[-0.01203125063329935,
		-0.9995312690734863,
		-0.0715312510728836],
		"max":[0.0017500000540167094,
		-0.9973750710487366,
		-0.029781252145767213]
	},
	{
		"bufferView":5,
		"type":"VEC2",
		"componentType":5126,
		"count":6,
		"byteOffset":24,
		"min":[0.723599910736084,
		0.09709998965263367],
		"max":[0.733799934387207,
		0.10480000078678131]
	},
	{
		"bufferView":6,
		"type":"SCALAR",
		"componentType":5123,
		"count":20274,
		"byteOffset":0,
		"min":[0],
		"max":[3849]
	},
	{
		"bufferView":7,
		"type":"VEC3",
		"componentType":5126,
		"count":3850,
		"byteOffset":0,
		"min":[-10.721551895141602,
		-0.4742628037929535,
		-3.181529998779297],
		"max":[3.6204993724823,
		0.4742628037929535,
		1.8801716566085816]
	},
	{
		"bufferView":7,
		"type":"VEC3",
		"componentType":5126,
		"count":3850,
		"byteOffset":12,
		"min":[-0.9982500672340393,
		-0.9999688267707825,
		-0.9999688267707825],
		"max":[0.5930625200271606,
		0.9999688267707825,
		0.9955313205718994]
	},
	{
		"bufferView":7,
		"type":"VEC2",
		"componentType":5126,
		"count":3850,
		"byteOffset":24,
		"min":[0.02500000037252903,
		0.009999999776482582],
		"max":[0.9767000079154968,
		0.7202999591827393]
	},
	{
		"bufferView":8,
		"type":"SCALAR",
		"componentType":5123,
		"count":28812,
		"byteOffset":0,
		"min":[0],
		"max":[5186]
	},
	{
		"bufferView":9,
		"type":"VEC3",
		"componentType":5126,
		"count":5187,
		"byteOffset":0,
		"min":[-13.670860290527344,
		-0.8554326295852661,
		4.27736759185791],
		"max":[-0.07682730257511139,
		0.10270919650793076,
		9.719727516174317]
	},
	{
		"bufferView":9,
		"type":"VEC3",
		"componentType":5126,
		"count":5187,
		"byteOffset":12,
		"min":[-0.9999688267707825,
		-0.9999688267707825,
		-0.9999688267707825],
		"max":[0.09281250089406967,
		0.9999688267707825,
		0.9999688267707825]
	},
	{
		"bufferView":9,
		"type":"VEC2",
		"componentType":5126,
		"count":5187,
		"byteOffset":24,
		"min":[0.06970000267028809,
		0.2791999578475952],
		"max":[0.9218000173568726,
		0.9972000122070313]
	},
	{
		"bufferView":10,
		"type":"SCALAR",
		"componentType":5123,
		"count":26994,
		"byteOffset":0,
		"min":[0],
		"max":[5180]
	},
	{
		"bufferView":11,
		"type":"VEC3",
		"componentType":5126,
		"count":5181,
		"byteOffset":0,
		"min":[-12.70115852355957,
		-0.20286090672016145,
		-0.3610166907310486],
		"max":[-10.68032455444336,
		0.4709891974925995,
		6.678757667541504]
	},
	{
		"bufferView":11,
		"type":"VEC3",
		"componentType":5126,
		"count":5181,
		"byteOffset":12,
		"min":[-0.9999688267707825,
		-0.9999688267707825,
		-0.9255625605583191],
		"max":[0.7073125243186951,
		0.9998750686645508,
		0.9354375600814819]
	},
	{
		"bufferView":11,
		"type":"VEC2",
		"componentType":5126,
		"count":5181,
		"byteOffset":24,
		"min":[0.09520000219345093,
		0.07829999923706055],
		"max":[0.9021999835968018,
		0.8641999959945679]
	},
	{
		"bufferView":12,
		"type":"SCALAR",
		"componentType":5123,
		"count":5670,
		"byteOffset":0,
		"min":[0],
		"max":[1159]
	},
	{
		"bufferView":13,
		"type":"VEC3",
		"componentType":5126,
		"count":1160,
		"byteOffset":0,
		"min":[-0.906071126461029,
		-1.8003777265548707,
		-0.5894526243209839],
		"max":[2.016435384750366,
		1.9503494501113892,
		4.313786506652832]
	},
	{
		"bufferView":13,
		"type":"VEC3",
		"componentType":5126,
		"count":1160,
		"byteOffset":12,
		"min":[-0.9989375472068787,
		-0.9999688267707825,
		-0.9819688200950623],
		"max":[0.5660000443458557,
		0.9999688267707825,
		0.7021250128746033]
	},
	{
		"bufferView":13,
		"type":"VEC2",
		"componentType":5126,
		"count":1160,
		"byteOffset":24,
		"min":[0.006899999920278788,
		0.3438999652862549],
		"max":[0.9960999488830566,
		0.9859999418258667]
	},
	{
		"bufferView":14,
		"type":"SCALAR",
		"componentType":5123,
		"count":3270,
		"byteOffset":0,
		"min":[0],
		"max":[668]
	},
	{
		"bufferView":15,
		"type":"VEC3",
		"componentType":5126,
		"count":669,
		"byteOffset":0,
		"min":[6.694511890411377,
		-1.5835016965866089,
		0.5846444964408875],
		"max":[8.736931800842286,
		1.5835016965866089,
		2.5979084968566896]
	},
	{
		"bufferView":15,
		"type":"VEC3",
		"componentType":5126,
		"count":669,
		"byteOffset":12,
		"min":[-0.9200937747955322,
		-0.9998750686645508,
		-0.9534375667572022],
		"max":[0.9470313191413879,
		0.9998750686645508,
		0.9252188205718994]
	},
	{
		"bufferView":15,
		"type":"VEC2",
		"componentType":5126,
		"count":669,
		"byteOffset":24,
		"min":[0.09039999544620514,
		0.16509997844696046],
		"max":[0.8734999895095825,
		0.7432999610900879]
	}],
	"bufferViews":[{
		"buffer":0,
		"byteOffset":0,
		"byteLength":176880,
		"target":34963
	},
	{
		"buffer":0,
		"byteOffset":176880,
		"byteLength":535104,
		"target":34962,
		"byteStride":32
	},
	{
		"buffer":1,
		"byteOffset":0,
		"byteLength":2112,
		"target":34963
	},
	{
		"buffer":1,
		"byteOffset":2112,
		"byteLength":8640,
		"target":34962,
		"byteStride":32
	},
	{
		"buffer":2,
		"byteOffset":0,
		"byteLength":24,
		"target":34963
	},
	{
		"buffer":2,
		"byteOffset":24,
		"byteLength":192,
		"target":34962,
		"byteStride":32
	},
	{
		"buffer":3,
		"byteOffset":0,
		"byteLength":40548,
		"target":34963
	},
	{
		"buffer":3,
		"byteOffset":40548,
		"byteLength":123200,
		"target":34962,
		"byteStride":32
	},
	{
		"buffer":4,
		"byteOffset":0,
		"byteLength":57624,
		"target":34963
	},
	{
		"buffer":4,
		"byteOffset":57624,
		"byteLength":165984,
		"target":34962,
		"byteStride":32
	},
	{
		"buffer":5,
		"byteOffset":0,
		"byteLength":53988,
		"target":34963
	},
	{
		"buffer":5,
		"byteOffset":53988,
		"byteLength":165792,
		"target":34962,
		"byteStride":32
	},
	{
		"buffer":6,
		"byteOffset":0,
		"byteLength":11340,
		"target":34963
	},
	{
		"buffer":6,
		"byteOffset":11340,
		"byteLength":37120,
		"target":34962,
		"byteStride":32
	},
	{
		"buffer":7,
		"byteOffset":0,
		"byteLength":6540,
		"target":34963
	},
	{
		"buffer":7,
		"byteOffset":6540,
		"byteLength":21408,
		"target":34962,
		"byteStride":32
	}],
	"buffers":[{
		"uri":"data:application/octet-stream;base64,",
		"byteLength":711984
	},
	{
		"uri":"data:application/octet-stream;base64,",
		"byteLength":10752
	},
	{
		"uri":"data:application/octet-stream;base64,",
		"byteLength":216
	},
	{
		"uri":"data:application/octet-stream;base64,",
		"byteLength":163748
	},
	{
		"uri":"data:application/octet-stream;base64,",
		"byteLength":223608
	},
	{
		"uri":"data:application/octet-stream;base64,",
		"byteLength":219780
	},
	{
		"uri":"data:application/octet-stream;base64,",
		"byteLength":48460
	},
	{
		"uri":"data:application/octet-stream;base64,",
		"byteLength":27948
	}]
}