{
	"asset":{
		"version":"2.0",
		"generator":"Created using the official Cinema 4D glTF Exporter 1.000x284978"
	},
	"scenes":[{
		"nodes":[0]
	}],
	"nodes":[{
		"name":"objects.dwg",
		"translation":[0.0,
		0.0,
		0.0],
		"rotation":[0.7071067690849304,
		0.0,
		0.0,
		-0.7071067690849304],
		"scale":[1.0,
		1.0,
		1.0],
		"children":[1,
		2,
		3,
		4]
	},
	{
		"name":"PolyFaceMesh",
		"translation":[0.0,
		-76.56936645507813,
		21.064136505126954],
		"rotation":[0.0,
		0.0,
		0.0,
		-1.0],
		"scale":[1.0,
		1.0,
		1.0],
		"mesh":0
	},
	{
		"name":"PolyFaceMesh",
		"translation":[0.0,
		-56.240421295166019,
		27.693584442138673],
		"rotation":[0.0,
		0.0,
		0.0,
		-1.0],
		"scale":[1.0,
		1.0,
		1.0],
		"mesh":1
	},
	{
		"name":"PolyFaceMesh",
		"translation":[-4.76837158203125e-7,
		-73.5458984375,
		19.965282440185548],
		"rotation":[0.0,
		0.0,
		0.0,
		-1.0],
		"scale":[1.0,
		1.0,
		1.0],
		"mesh":2
	},
	{
		"name":"PolyFaceMesh",
		"translation":[0.0,
		50.83673858642578,
		-28.676368713378908],
		"rotation":[0.0,
		0.0,
		0.0,
		-1.0],
		"scale":[1.0,
		1.0,
		1.0],
		"children":[5,
		6]
	},
	{
		"name":"PolyFaceMesh-Mat",
		"mesh":3
	},
	{
		"name":"PolyFaceMesh-ACI 8",
		"mesh":4
	}],
	"materials":[{
		"pbrMetallicRoughness":{
			"baseColorFactor":[0.0,
			1.0,
			1.0,
			1.0],
			"metallicFactor":0.0,
			"roughnessFactor":0.5
		},
		"emissiveFactor":[0.0,
		0.0,
		0.0],
		"alphaMode":"OPAQUE",
		"doubleSided":false,
		"name":"ACI 4"
	},
	{
		"pbrMetallicRoughness":{
			"baseColorFactor":[0.0,
			0.0,
			1.0,
			1.0],
			"metallicFactor":0.0,
			"roughnessFactor":0.5
		},
		"emissiveFactor":[0.0,
		0.0,
		0.0],
		"alphaMode":"OPAQUE",
		"doubleSided":false,
		"name":"ACI 5"
	},
	{
		"pbrMetallicRoughness":{
			"baseColorFactor":[1.0,
			0.0,
			0.0,
			1.0],
			"metallicFactor":0.0,
			"roughnessFactor":0.5
		},
		"emissiveFactor":[0.0,
		0.0,
		0.0],
		"alphaMode":"OPAQUE",
		"doubleSided":false,
		"name":"ACI 1"
	},
	{
		"pbrMetallicRoughness":{
			"baseColorFactor":[0.8,
			0.8,
			0.8,
			1.0],
			"metallicFactor":0.0,
			"roughnessFactor":0.5
		},
		"emissiveFactor":[0.0,
		0.0,
		0.0],
		"alphaMode":"OPAQUE",
		"doubleSided":false,
		"name":"Mat"
	},
	{
		"pbrMetallicRoughness":{
			"baseColorFactor":[0.5019607843137255,
			0.5019607843137255,
			0.5019607843137255,
			1.0],
			"metallicFactor":0.0,
			"roughnessFactor":0.5
		},
		"emissiveFactor":[0.0,
		0.0,
		0.0],
		"alphaMode":"OPAQUE",
		"doubleSided":false,
		"name":"ACI 8"
	}],
	"meshes":[{
		"name":"PolyFaceMesh",
		"primitives":[{
			"attributes":{
				"POSITION":1,
				"NORMAL":2
			},
			"indices":0,
			"material":0
		}]
	},
	{
		"name":"PolyFaceMesh",
		"primitives":[{
			"attributes":{
				"POSITION":4,
				"NORMAL":5
			},
			"indices":3,
			"material":1
		}]
	},
	{
		"name":"PolyFaceMesh",
		"primitives":[{
			"attributes":{
				"POSITION":7,
				"NORMAL":8
			},
			"indices":6,
			"material":2
		}]
	},
	{
		"name":"PolyFaceMesh-Mat",
		"primitives":[{
			"attributes":{
				"POSITION":10,
				"NORMAL":11
			},
			"indices":9,
			"material":3
		}]
	},
	{
		"name":"PolyFaceMesh-ACI 8",
		"primitives":[{
			"attributes":{
				"POSITION":13,
				"NORMAL":14
			},
			"indices":12,
			"material":4
		}]
	}],
	"accessors":[{
		"bufferView":0,
		"type":"SCALAR",
		"componentType":5123,
		"count":648,
		"byteOffset":0,
		"min":[0],
		"max":[176]
	},
	{
		"bufferView":1,
		"type":"VEC3",
		"componentType":5126,
		"count":177,
		"byteOffset":0,
		"min":[-13.66086196899414,
		-13.669132232666016,
		-7.3794145584106449],
		"max":[13.66086196899414,
		13.669132232666016,
		7.3794145584106449]
	},
	{
		"bufferView":1,
		"type":"VEC3",
		"componentType":5126,
		"count":177,
		"byteOffset":12,
		"min":[-0.8754743337631226,
		-0.869864821434021,
		-0.9971728324890137],
		"max":[0.8754744529724121,
		0.9949952960014343,
		0.9980407953262329]
	},
	{
		"bufferView":2,
		"type":"SCALAR",
		"componentType":5123,
		"count":324,
		"byteOffset":0,
		"min":[0],
		"max":[67]
	},
	{
		"bufferView":3,
		"type":"VEC3",
		"componentType":5126,
		"count":68,
		"byteOffset":0,
		"min":[-16.909862518310548,
		-1.5483055114746094,
		-1.6183280944824219],
		"max":[16.909862518310548,
		1.5483055114746094,
		1.6183280944824219]
	},
	{
		"bufferView":3,
		"type":"VEC3",
		"componentType":5126,
		"count":68,
		"byteOffset":12,
		"min":[-0.9893575310707092,
		-0.618603527545929,
		-0.7360814213752747],
		"max":[0.9893575310707092,
		0.9660027623176575,
		0.8839976191520691]
	},
	{
		"bufferView":4,
		"type":"SCALAR",
		"componentType":5123,
		"count":408,
		"byteOffset":0,
		"min":[0],
		"max":[111]
	},
	{
		"bufferView":5,
		"type":"VEC3",
		"componentType":5126,
		"count":112,
		"byteOffset":0,
		"min":[-10.370576858520508,
		-10.101604461669922,
		-5.418917655944824],
		"max":[10.370576858520508,
		10.101604461669922,
		5.418917655944824]
	},
	{
		"bufferView":5,
		"type":"VEC3",
		"componentType":5126,
		"count":112,
		"byteOffset":12,
		"min":[-0.7488878965377808,
		-0.5407229661941528,
		-0.9990681409835815],
		"max":[0.748887836933136,
		0.8652027249336243,
		0.9999880194664002]
	},
	{
		"bufferView":6,
		"type":"SCALAR",
		"componentType":5123,
		"count":1455,
		"byteOffset":0,
		"min":[0],
		"max":[435]
	},
	{
		"bufferView":7,
		"type":"VEC3",
		"componentType":5126,
		"count":436,
		"byteOffset":0,
		"min":[-24.55049705505371,
		-141.9736328125,
		-73.11839294433594],
		"max":[50.48219299316406,
		130.80831909179688,
		78.4100341796875]
	},
	{
		"bufferView":7,
		"type":"VEC3",
		"componentType":5126,
		"count":436,
		"byteOffset":12,
		"min":[-0.9865625500679016,
		-0.9909688234329224,
		-0.9623438119888306],
		"max":[0.9537500739097595,
		0.9760000705718994,
		0.9999688267707825]
	},
	{
		"bufferView":8,
		"type":"SCALAR",
		"componentType":5123,
		"count":3837,
		"byteOffset":0,
		"min":[0],
		"max":[1004]
	},
	{
		"bufferView":9,
		"type":"VEC3",
		"componentType":5126,
		"count":1005,
		"byteOffset":0,
		"min":[-52.968448638916019,
		-141.9736328125,
		-80.50904083251953],
		"max":[52.968448638916019,
		141.9736328125,
		80.50904083251953]
	},
	{
		"bufferView":9,
		"type":"VEC3",
		"componentType":5126,
		"count":1005,
		"byteOffset":12,
		"min":[-0.9996563196182251,
		-0.9985625743865967,
		-0.9996875524520874],
		"max":[0.9996563196182251,
		0.9996563196182251,
		0.9275937676429749]
	}],
	"bufferViews":[{
		"buffer":0,
		"byteOffset":0,
		"byteLength":1296,
		"target":34963
	},
	{
		"buffer":0,
		"byteOffset":1296,
		"byteLength":4248,
		"target":34962,
		"byteStride":24
	},
	{
		"buffer":1,
		"byteOffset":0,
		"byteLength":648,
		"target":34963
	},
	{
		"buffer":1,
		"byteOffset":648,
		"byteLength":1632,
		"target":34962,
		"byteStride":24
	},
	{
		"buffer":2,
		"byteOffset":0,
		"byteLength":816,
		"target":34963
	},
	{
		"buffer":2,
		"byteOffset":816,
		"byteLength":2688,
		"target":34962,
		"byteStride":24
	},
	{
		"buffer":3,
		"byteOffset":0,
		"byteLength":2910,
		"target":34963
	},
	{
		"buffer":3,
		"byteOffset":2912,
		"byteLength":10464,
		"target":34962,
		"byteStride":24
	},
	{
		"buffer":4,
		"byteOffset":0,
		"byteLength":7674,
		"target":34963
	},
	{
		"buffer":4,
		"byteOffset":7676,
		"byteLength":24120,
		"target":34962,
		"byteStride":24
	}],
	"buffers":[{
		"uri":"data:application/octet-stream;base64,",
		"byteLength":5544
	},
	{
		"uri":"data:application/octet-stream;base64,",
		"byteLength":2280
	},
	{
		"uri":"data:application/octet-stream;base64,",
		"byteLength":3504
	},
	{
		"uri":"data:application/octet-stream;base64,",
		"byteLength":13376
	},
	{
		"uri":"data:application/octet-stream;base64,",
		"byteLength":31796
	}]
}