{
	"asset":{
		"version":"2.0",
		"generator":"Created using the official Cinema 4D glTF Exporter 1.000x284978"
	},
	"scenes":[{
		"nodes":[0]
	}],
	"bufferViews":[{
		"buffer":0,
		"byteOffset":0,
		"byteLength":22800,
		"target":34963
	},
	{
		"buffer":0,
		"byteOffset":22800,
		"byteStride":32,
		"byteLength":71968,
		"target":34962
	}],
	"nodes":[{
		"name":"bamboo_shark",
		"mesh":0
	}],
	"meshes":[{
		"name":"bamboo_shark",
		"primitives":[{
			"attributes":{
				"POSITION":1,
				"NORMAL":2,
				"TEXCOORD_0":3
			},
			"indices":0,
			"material":0
		}]
	}],
	"accessors":[{
		"bufferView":0,
		"type":"SCALAR",
		"componentType":5123,
		"count":11400,
		"byteOffset":0,
		"min":[0],
		"max":[2248]
	},
	{
		"bufferView":1,
		"type":"VEC3",
		"componentType":5126,
		"count":2249,
		"byteOffset":0,
		"min":[-255.6690216064453,
		16.768783569335939,
		-81.00386047363281],
		"max":[256.11370849609377,
		104.78274536132813,
		81.00386047363281]
	},
	{
		"bufferView":1,
		"type":"VEC3",
		"componentType":5126,
		"count":2249,
		"byteOffset":12,
		"min":[-0.9968125224113464,
		-0.9996563196182251,
		-0.9998750686645508],
		"max":[0.9996563196182251,
		0.9999688267707825,
		0.9998750686645508]
	},
	{
		"bufferView":1,
		"type":"VEC2",
		"componentType":5126,
		"count":2249,
		"byteOffset":24,
		"min":[0.06329015642404556,
		0.03282743692398071],
		"max":[0.974994421005249,
		0.8262170553207398]
	}],
	"buffers":[{
		"uri":"data:application/octet-stream;base64,",
		"byteLength":94768
	}],
	"materials":[{
		"pbrMetallicRoughness":{
			"baseColorFactor":[1.0,
			1.0,
			1.0,
			1.0],
			"metallicFactor":0.0,
			"roughnessFactor":0.5
		},
		"emissiveFactor":[0.0,
		0.0,
		0.0],
		"alphaMode":"OPAQUE",
		"doubleSided":false,
		"name":"Mat"
	}]
}