{
	"asset":{
		"version":"2.0",
		"generator":"Created using the official Cinema 4D glTF Exporter 1.000x284978"
	},
	"scenes":[{
		"nodes":[0]
	}],
	"accessors":[{
		"bufferView":0,
		"type":"SCALAR",
		"componentType":5123,
		"count":252,
		"byteOffset":0,
		"min":[0],
		"max":[167]
	},
	{
		"bufferView":1,
		"type":"VEC3",
		"componentType":5126,
		"count":168,
		"byteOffset":0,
		"min":[2.0376486778259279,
		-0.21984729170799256,
		-0.18554672598838807],
		"max":[2.2725765705108644,
		-0.07402408123016358,
		0.15713322162628175]
	},
	{
		"bufferView":1,
		"type":"VEC3",
		"componentType":5126,
		"count":168,
		"byteOffset":12,
		"min":[0.0,
		-0.15956251323223115,
		-0.9971563220024109],
		"max":[0.9853438138961792,
		0.0,
		0.951593816280365]
	},
	{
		"bufferView":1,
		"type":"VEC2",
		"componentType":5126,
		"count":168,
		"byteOffset":24,
		"min":[0.016318082809448243,
		-0.5938318967819214],
		"max":[0.9836819171905518,
		-0.5011904239654541]
	},
	{
		"bufferView":2,
		"type":"SCALAR",
		"componentType":5123,
		"count":9594,
		"byteOffset":0,
		"min":[0],
		"max":[2001]
	},
	{
		"bufferView":3,
		"type":"VEC3",
		"componentType":5126,
		"count":2002,
		"byteOffset":0,
		"min":[-5.6785502433776859,
		-0.5878126621246338,
		-1.3813074827194214],
		"max":[2.733189344406128,
		1.2853862047195435,
		1.3425370454788209]
	},
	{
		"bufferView":3,
		"type":"VEC3",
		"componentType":5126,
		"count":2002,
		"byteOffset":12,
		"min":[-0.9982500672340393,
		-0.9998437762260437,
		-0.9998750686645508],
		"max":[0.9987813234329224,
		0.9975000619888306,
		0.9998750686645508]
	},
	{
		"bufferView":3,
		"type":"VEC2",
		"componentType":5126,
		"count":2002,
		"byteOffset":24,
		"min":[0.0020000000949949028,
		-0.9980000257492065],
		"max":[0.9922443628311157,
		-0.001999974250793457]
	}],
	"nodes":[{
		"name":"pCube2",
		"translation":[-0.5561081171035767,
		0.7368756532669067,
		-0.09859900176525116],
		"rotation":[0.0,
		0.0,
		0.0,
		-1.0],
		"scale":[1.0,
		1.0,
		1.0],
		"children":[1,
		2]
	},
	{
		"name":"pCube2-lambert6",
		"mesh":0
	},
	{
		"name":"pCube2-lambert4",
		"mesh":1
	}],
	"meshes":[{
		"name":"pCube2-lambert6",
		"primitives":[{
			"attributes":{
				"POSITION":1,
				"NORMAL":2,
				"TEXCOORD_0":3
			},
			"indices":0,
			"material":0
		}]
	},
	{
		"name":"pCube2-lambert4",
		"primitives":[{
			"attributes":{
				"POSITION":5,
				"NORMAL":6,
				"TEXCOORD_0":7
			},
			"indices":4,
			"material":1
		}]
	}],
	"bufferViews":[{
		"buffer":0,
		"byteOffset":0,
		"byteLength":504,
		"target":34963
	},
	{
		"buffer":0,
		"byteOffset":504,
		"byteLength":5376,
		"target":34962,
		"byteStride":32
	},
	{
		"buffer":1,
		"byteOffset":0,
		"byteLength":19188,
		"target":34963
	},
	{
		"buffer":1,
		"byteOffset":19188,
		"byteLength":64064,
		"target":34962,
		"byteStride":32
	}],
	"buffers":[{
		"uri":"data:application/octet-stream;base64,",
		"byteLength":5880
	},
	{
		"uri":"data:application/octet-stream;base64,",
		"byteLength":83252
	}],
	"materials":[{
		"pbrMetallicRoughness":{
			"baseColorFactor":[0.800000011920929,
			0.800000011920929,
			0.800000011920929,
			1.0],
			"metallicFactor":1.0,
			"roughnessFactor":1.0
		},
		"emissiveFactor":[0.0,
		0.0,
		0.0],
		"alphaMode":"BLEND",
		"doubleSided":false,
		"name":"lambert6"
	},
	{
		"pbrMetallicRoughness":{
			"baseColorFactor":[0.800000011920929,
			0.800000011920929,
			0.800000011920929,
			1.0],
			"metallicFactor":1.0,
			"roughnessFactor":1.0
		},
		"emissiveFactor":[0.0,
		0.0,
		0.0],
		"alphaMode":"OPAQUE",
		"doubleSided":false,
		"name":"lambert4"
	}]
}