{
	"nodes":[{
		"name":"Default",
		"children":[1,
		2,
		3,
		4,
		5,
		6,
		7]
	},
	{
		"name":"Default-Mat",
		"mesh":0
	},
	{
		"name":"Default-Mat",
		"mesh":1
	},
	{
		"name":"Default-Mat",
		"mesh":2
	},
	{
		"name":"Default-Mat",
		"mesh":3
	},
	{
		"name":"Default-Mat",
		"mesh":4
	},
	{
		"name":"Default-Bodylow_1SG",
		"mesh":5
	},
	{
		"name":"Default-EyesSG",
		"mesh":6
	}],
	"asset":{
		"version":"2.0",
		"generator":"Created using the official Cinema 4D glTF Exporter 1.000x284978"
	},
	"scenes":[{
		"nodes":[0]
	}],
	"meshes":[{
		"name":"Default-Mat",
		"primitives":[{
			"attributes":{
				"POSITION":1,
				"NORMAL":2,
				"TEXCOORD_0":3
			},
			"indices":0,
			"material":0
		}]
	},
	{
		"name":"Default-Mat",
		"primitives":[{
			"attributes":{
				"POSITION":5,
				"NORMAL":6,
				"TEXCOORD_0":7
			},
			"indices":4,
			"material":0
		}]
	},
	{
		"name":"Default-Mat",
		"primitives":[{
			"attributes":{
				"POSITION":9,
				"NORMAL":10,
				"TEXCOORD_0":11
			},
			"indices":8,
			"material":0
		}]
	},
	{
		"name":"Default-Mat",
		"primitives":[{
			"attributes":{
				"POSITION":13,
				"NORMAL":14,
				"TEXCOORD_0":15
			},
			"indices":12,
			"material":0
		}]
	},
	{
		"name":"Default-Mat",
		"primitives":[{
			"attributes":{
				"POSITION":17,
				"NORMAL":18,
				"TEXCOORD_0":19
			},
			"indices":16,
			"material":0
		}]
	},
	{
		"name":"Default-Bodylow_1SG",
		"primitives":[{
			"attributes":{
				"POSITION":21,
				"NORMAL":22,
				"TEXCOORD_0":23
			},
			"indices":20,
			"material":1
		}]
	},
	{
		"name":"Default-EyesSG",
		"primitives":[{
			"attributes":{
				"POSITION":25,
				"NORMAL":26,
				"TEXCOORD_0":27
			},
			"indices":24,
			"material":2
		}]
	}],
	"accessors":[{
		"min":[0],
		"bufferView":0,
		"max":[61],
		"type":"SCALAR",
		"componentType":5123,
		"count":255,
		"byteOffset":0
	},
	{
		"min":[1.450340986251831,
		0.8413659930229187,
		-0.11600100249052048],
		"bufferView":1,
		"max":[3.2403390407562258,
		1.0860249996185303,
		0.6965879797935486],
		"type":"VEC3",
		"componentType":5126,
		"count":62,
		"byteOffset":0
	},
	{
		"min":[0.11181250214576721,
		-0.9069687724113464,
		0.3100000023841858],
		"bufferView":1,
		"max":[0.6540625095367432,
		0.8603438138961792,
		0.9346563220024109],
		"type":"VEC3",
		"componentType":5126,
		"count":62,
		"byteOffset":12
	},
	{
		"min":[0.43190997838974,
		0.1708810031414032],
		"bufferView":1,
		"max":[0.5800700187683106,
		0.21718299388885499],
		"type":"VEC2",
		"componentType":5126,
		"count":62,
		"byteOffset":24
	},
	{
		"min":[0],
		"bufferView":2,
		"max":[85],
		"type":"SCALAR",
		"componentType":5123,
		"count":372,
		"byteOffset":0
	},
	{
		"min":[-1.3897730112075806,
		0.45481300354003909,
		0.727940022945404],
		"bufferView":3,
		"max":[-0.8391780257225037,
		1.155385971069336,
		1.3918570280075074],
		"type":"VEC3",
		"componentType":5126,
		"count":86,
		"byteOffset":0
	},
	{
		"min":[-0.9653125405311585,
		-0.9543750286102295,
		-0.0007187500596046448],
		"bufferView":3,
		"max":[-0.2750625014305115,
		0.8537188172340393,
		0.6452500224113464],
		"type":"VEC3",
		"componentType":5126,
		"count":86,
		"byteOffset":12
	},
	{
		"min":[0.11717098951339722,
		0.3393099904060364],
		"bufferView":3,
		"max":[0.22485199570655824,
		0.4156249761581421],
		"type":"VEC2",
		"componentType":5126,
		"count":86,
		"byteOffset":24
	},
	{
		"min":[0],
		"bufferView":4,
		"max":[60],
		"type":"SCALAR",
		"componentType":5123,
		"count":264,
		"byteOffset":0
	},
	{
		"min":[1.0222300291061402,
		0.8353760242462158,
		0.736407995223999],
		"bufferView":5,
		"max":[1.3897730112075806,
		1.145658016204834,
		1.4675730466842652],
		"type":"VEC3",
		"componentType":5126,
		"count":61,
		"byteOffset":0
	},
	{
		"min":[0.5036875009536743,
		-0.38215628266334536,
		0.12046875804662705],
		"bufferView":5,
		"max":[0.9918438196182251,
		0.8135625123977661,
		0.6452500224113464],
		"type":"VEC3",
		"componentType":5126,
		"count":61,
		"byteOffset":12
	},
	{
		"min":[0.3620370030403137,
		0.1454489827156067],
		"bufferView":5,
		"max":[0.42795801162719729,
		0.19210398197174073],
		"type":"VEC2",
		"componentType":5126,
		"count":61,
		"byteOffset":24
	},
	{
		"min":[0],
		"bufferView":6,
		"max":[4758],
		"type":"SCALAR",
		"componentType":5123,
		"count":18984,
		"byteOffset":0
	},
	{
		"min":[-4.278911113739014,
		0.18905900418758393,
		-6.573408126831055],
		"bufferView":7,
		"max":[4.265223026275635,
		1.1098530292510987,
		1.4623199701309205],
		"type":"VEC3",
		"componentType":5126,
		"count":4759,
		"byteOffset":0
	},
	{
		"min":[-0.9999688267707825,
		-0.9999688267707825,
		-0.9361875653266907],
		"bufferView":7,
		"max":[0.9997813105583191,
		0.9252188205718994,
		0.9996563196182251],
		"type":"VEC3",
		"componentType":5126,
		"count":4759,
		"byteOffset":12
	},
	{
		"min":[0.0019529999699443579,
		0.11453299224376679],
		"bufferView":7,
		"max":[0.7893749475479126,
		0.9300240278244019],
		"type":"VEC2",
		"componentType":5126,
		"count":4759,
		"byteOffset":24
	},
	{
		"min":[0],
		"bufferView":8,
		"max":[90],
		"type":"SCALAR",
		"componentType":5123,
		"count":309,
		"byteOffset":0
	},
	{
		"min":[-1.5462069511413575,
		1.0472500324249268,
		-0.38058799505233767],
		"bufferView":9,
		"max":[1.5542700290679932,
		1.320633053779602,
		0.736407995223999],
		"type":"VEC3",
		"componentType":5126,
		"count":91,
		"byteOffset":0
	},
	{
		"min":[-0.31434375047683718,
		0.6623125076293945,
		-0.06668750196695328],
		"bufferView":9,
		"max":[0.6604687571525574,
		0.994562566280365,
		0.6106250286102295],
		"type":"VEC3",
		"componentType":5126,
		"count":91,
		"byteOffset":12
	},
	{
		"min":[0.11657600104808808,
		0.16319099068641663],
		"bufferView":9,
		"max":[0.9150099754333496,
		0.9337319135665894],
		"type":"VEC2",
		"componentType":5126,
		"count":91,
		"byteOffset":24
	},
	{
		"min":[0],
		"bufferView":10,
		"max":[7355],
		"type":"SCALAR",
		"componentType":5123,
		"count":39648,
		"byteOffset":0
	},
	{
		"min":[-4.287357807159424,
		0.21845999360084535,
		-6.583944797515869],
		"bufferView":11,
		"max":[4.287357807159424,
		1.3690780401229859,
		2.655147075653076],
		"type":"VEC3",
		"componentType":5126,
		"count":7356,
		"byteOffset":0
	},
	{
		"min":[-0.9999688267707825,
		-0.9988750219345093,
		-0.9965000748634338],
		"bufferView":11,
		"max":[0.9999688267707825,
		0.9999688267707825,
		0.9989063143730164],
		"type":"VEC3",
		"componentType":5126,
		"count":7356,
		"byteOffset":12
	},
	{
		"min":[0.0019529999699443579,
		0.03526400029659271],
		"bufferView":11,
		"max":[0.9980469942092896,
		0.9980469942092896],
		"type":"VEC2",
		"componentType":5126,
		"count":7356,
		"byteOffset":24
	},
	{
		"min":[0],
		"bufferView":12,
		"max":[16299],
		"type":"SCALAR",
		"componentType":5123,
		"count":95316,
		"byteOffset":0
	},
	{
		"min":[-1.304103970527649,
		0.8474079966545105,
		0.7647150158882141],
		"bufferView":13,
		"max":[1.3300830125808716,
		1.1218830347061158,
		1.0595489740371705],
		"type":"VEC3",
		"componentType":5126,
		"count":16300,
		"byteOffset":0
	},
	{
		"min":[-0.9999688267707825,
		-1.0,
		-0.9999688267707825],
		"bufferView":13,
		"max":[0.9999688267707825,
		1.0,
		0.9999688267707825],
		"type":"VEC3",
		"componentType":5126,
		"count":16300,
		"byteOffset":12
	},
	{
		"min":[0.0019529999699443579,
		0.0019529999699443579],
		"bufferView":13,
		"max":[0.7150930166244507,
		0.9980469942092896],
		"type":"VEC2",
		"componentType":5126,
		"count":16300,
		"byteOffset":24
	}],
	"bufferViews":[{
		"buffer":0,
		"byteOffset":0,
		"byteLength":510,
		"target":34963
	},
	{
		"buffer":0,
		"byteOffset":512,
		"byteLength":1984,
		"target":34962,
		"byteStride":32
	},
	{
		"buffer":1,
		"byteOffset":0,
		"byteLength":744,
		"target":34963
	},
	{
		"buffer":1,
		"byteOffset":744,
		"byteLength":2752,
		"target":34962,
		"byteStride":32
	},
	{
		"buffer":2,
		"byteOffset":0,
		"byteLength":528,
		"target":34963
	},
	{
		"buffer":2,
		"byteOffset":528,
		"byteLength":1952,
		"target":34962,
		"byteStride":32
	},
	{
		"buffer":3,
		"byteOffset":0,
		"byteLength":37968,
		"target":34963
	},
	{
		"buffer":3,
		"byteOffset":37968,
		"byteLength":152288,
		"target":34962,
		"byteStride":32
	},
	{
		"buffer":4,
		"byteOffset":0,
		"byteLength":618,
		"target":34963
	},
	{
		"buffer":4,
		"byteOffset":620,
		"byteLength":2912,
		"target":34962,
		"byteStride":32
	},
	{
		"buffer":5,
		"byteOffset":0,
		"byteLength":79296,
		"target":34963
	},
	{
		"buffer":5,
		"byteOffset":79296,
		"byteLength":235392,
		"target":34962,
		"byteStride":32
	},
	{
		"buffer":6,
		"byteOffset":0,
		"byteLength":190632,
		"target":34963
	},
	{
		"buffer":6,
		"byteOffset":190632,
		"byteLength":521600,
		"target":34962,
		"byteStride":32
	}],
	"buffers":[{
		"uri":"data:application/octet-stream;base64,",
		"byteLength":2496
	},
	{
		"uri":"data:application/octet-stream;base64,",
		"byteLength":3496
	},
	{
		"uri":"data:application/octet-stream;base64,",
		"byteLength":2480
	},
	{
		"uri":"data:application/octet-stream;base64,",
		"byteLength":190256
	},
	{
		"uri":"data:application/octet-stream;base64,",
		"byteLength":3532
	},
	{
		"uri":"data:application/octet-stream;base64,",
		"byteLength":314688
	},
	{
		"uri":"data:application/octet-stream;base64,",
		"byteLength":712232
	}],
	"materials":[{
		"pbrMetallicRoughness":{
			"baseColorFactor":[0.8,
			0.8,
			0.8,
			1.0],
			"metallicFactor":0.0,
			"roughnessFactor":0.5
		},
		"emissiveFactor":[0.0,
		0.0,
		0.0],
		"alphaMode":"OPAQUE",
		"doubleSided":false,
		"name":"Mat"
	},
	{
		"pbrMetallicRoughness":{
			"baseColorFactor":[0.24705882352941178,
			0.24705882352941178,
			0.24705882352941178,
			1.0],
			"metallicFactor":0.0,
			"roughnessFactor":0.5
		},
		"emissiveFactor":[0.0,
		0.0,
		0.0],
		"alphaMode":"OPAQUE",
		"doubleSided":false,
		"name":"Bodylow_1SG"
	},
	{
		"pbrMetallicRoughness":{
			"baseColorFactor":[0.1586,
			0.2940199999999999,
			0.61,
			1.0],
			"metallicFactor":0.0,
			"roughnessFactor":0.5
		},
		"emissiveFactor":[0.0,
		0.0,
		0.0],
		"alphaMode":"OPAQUE",
		"doubleSided":false,
		"name":"EyesSG"
	}]
}