{
	"asset":{
		"generator":"Created using the official Cinema 4D glTF Exporter 1.000x284978",
		"version":"2.0"
	},
	"scenes":[{
		"nodes":[0]
	}],
	"meshes":[{
		"name":"Default-_Sharkgreatwhiteshark",
		"primitives":[{
			"attributes":{
				"POSITION":1,
				"NORMAL":2,
				"TEXCOORD_0":3
			},
			"indices":0,
			"material":0
		}]
	},
	{
		"name":"Default-_Sharkgreatwhiteshark_teet",
		"primitives":[{
			"attributes":{
				"POSITION":5,
				"NORMAL":6,
				"TEXCOORD_0":7
			},
			"indices":4,
			"material":1
		}]
	},
	{
		"name":"Default-_Sharkgreatwhiteshark_eye",
		"primitives":[{
			"attributes":{
				"POSITION":9,
				"NORMAL":10,
				"TEXCOORD_0":11
			},
			"indices":8,
			"material":2
		}]
	}],
	"nodes":[{
		"name":"Default",
		"children":[1,
		2,
		3]
	},
	{
		"name":"Default-_Sharkgreatwhiteshark",
		"mesh":0
	},
	{
		"name":"Default-_Sharkgreatwhiteshark_teet",
		"mesh":1
	},
	{
		"name":"Default-_Sharkgreatwhiteshark_eye",
		"mesh":2
	}],
	"accessors":[{
		"bufferView":0,
		"type":"SCALAR",
		"componentType":5123,
		"count":16038,
		"byteOffset":0,
		"min":[0],
		"max":[3502]
	},
	{
		"bufferView":1,
		"type":"VEC3",
		"componentType":5126,
		"count":3503,
		"byteOffset":0,
		"min":[-4.3626298904418949,
		-2.1993300914764406,
		-14.488441467285157],
		"max":[4.3626298904418949,
		7.913421154022217,
		9.661935806274414]
	},
	{
		"bufferView":1,
		"type":"VEC3",
		"componentType":5126,
		"count":3503,
		"byteOffset":12,
		"min":[-1.0,
		-0.9999688267707825,
		-0.9995625615119934],
		"max":[1.0,
		1.0,
		0.9995312690734863]
	},
	{
		"bufferView":1,
		"type":"VEC2",
		"componentType":5126,
		"count":3503,
		"byteOffset":24,
		"min":[0.001306000049225986,
		2.001168727874756],
		"max":[0.9993569850921631,
		3.0]
	},
	{
		"bufferView":2,
		"type":"SCALAR",
		"componentType":5123,
		"count":3744,
		"byteOffset":0,
		"min":[0],
		"max":[1765]
	},
	{
		"bufferView":3,
		"type":"VEC3",
		"componentType":5126,
		"count":1766,
		"byteOffset":0,
		"min":[-1.0039819478988648,
		0.8811060190200806,
		6.765535831451416],
		"max":[1.1075960397720338,
		1.463088035583496,
		8.250190734863282]
	},
	{
		"bufferView":3,
		"type":"VEC3",
		"componentType":5126,
		"count":1766,
		"byteOffset":12,
		"min":[-0.9973750710487366,
		-0.9882813096046448,
		-0.9938125610351563],
		"max":[0.9969375729560852,
		0.9836875200271606,
		0.995093822479248]
	},
	{
		"bufferView":3,
		"type":"VEC2",
		"componentType":5126,
		"count":1766,
		"byteOffset":24,
		"min":[0.0004990000161342323,
		2.0033349990844728],
		"max":[0.9972699880599976,
		3.000509738922119]
	},
	{
		"bufferView":4,
		"type":"SCALAR",
		"componentType":5123,
		"count":1728,
		"byteOffset":0,
		"min":[0],
		"max":[330]
	},
	{
		"bufferView":5,
		"type":"VEC3",
		"componentType":5126,
		"count":331,
		"byteOffset":0,
		"min":[-1.289654016494751,
		2.1681699752807619,
		7.536252021789551],
		"max":[1.2896239757537842,
		2.5038681030273439,
		7.865724086761475]
	},
	{
		"bufferView":5,
		"type":"VEC3",
		"componentType":5126,
		"count":331,
		"byteOffset":12,
		"min":[-0.9872187972068787,
		-0.998343825340271,
		-0.9802500605583191],
		"max":[0.9872187972068787,
		0.998343825340271,
		0.9927188158035278]
	},
	{
		"bufferView":5,
		"type":"VEC2",
		"componentType":5126,
		"count":331,
		"byteOffset":24,
		"min":[-0.036166999489068988,
		2.0033040046691896],
		"max":[0.9963510036468506,
		2.9988536834716799]
	}],
	"bufferViews":[{
		"buffer":0,
		"byteOffset":0,
		"byteLength":32076,
		"target":34963
	},
	{
		"buffer":0,
		"byteOffset":32076,
		"byteLength":112096,
		"target":34962,
		"byteStride":32
	},
	{
		"buffer":1,
		"byteOffset":0,
		"byteLength":7488,
		"target":34963
	},
	{
		"buffer":1,
		"byteOffset":7488,
		"byteLength":56512,
		"target":34962,
		"byteStride":32
	},
	{
		"buffer":2,
		"byteOffset":0,
		"byteLength":3456,
		"target":34963
	},
	{
		"buffer":2,
		"byteOffset":3456,
		"byteLength":10592,
		"target":34962,
		"byteStride":32
	}],
	"buffers":[{
		"uri":"data:application/octet-stream;base64,",
		"byteLength":144172
	},
	{
		"uri":"data:application/octet-stream;base64,",
		"byteLength":64000
	},
	{
		"uri":"data:application/octet-stream;base64,",
		"byteLength":14048
	}],
	"materials":[{
		"pbrMetallicRoughness":{
			"baseColorFactor":[1.0,
			1.0,
			1.0,
			1.0],
			"metallicFactor":0.0,
			"roughnessFactor":0.5
		},
		"emissiveFactor":[0.0,
		0.0,
		0.0],
		"alphaMode":"OPAQUE",
		"doubleSided":false,
		"name":"_Sharkgreatwhiteshark"
	},
	{
		"pbrMetallicRoughness":{
			"baseColorFactor":[1.0,
			1.0,
			1.0,
			1.0],
			"metallicFactor":0.0,
			"roughnessFactor":0.5
		},
		"emissiveFactor":[0.0,
		0.0,
		0.0],
		"alphaMode":"OPAQUE",
		"doubleSided":false,
		"name":"_Sharkgreatwhiteshark_teet"
	},
	{
		"pbrMetallicRoughness":{
			"baseColorFactor":[1.0,
			1.0,
			1.0,
			1.0],
			"metallicFactor":0.0,
			"roughnessFactor":0.5
		},
		"emissiveFactor":[0.0,
		0.0,
		0.0],
		"alphaMode":"OPAQUE",
		"doubleSided":false,
		"name":"_Sharkgreatwhiteshark_eye"
	}]
}