{
	"accessors":[{
		"bufferView":0,
		"type":"SCALAR",
		"componentType":5123,
		"count":38229,
		"byteOffset":0,
		"min":[0],
		"max":[6668]
	},
	{
		"bufferView":1,
		"type":"VEC3",
		"componentType":5126,
		"count":6669,
		"byteOffset":0,
		"min":[-458.3581237792969,
		-2759.228271484375,
		-4000.0],
		"max":[451.6912536621094,
		17.858877182006837,
		4000.242431640625]
	}],
	"asset":{
		"version":"2.0",
		"generator":"Created using the official Cinema 4D glTF Exporter 1.000x284978"
	},
	"scenes":[{
		"nodes":[0]
	}],
	"nodes":[{
		"name":"Plane",
		"mesh":0
	}],
	"materials":[{
		"alphaMode":"OPAQUE",
		"pbrMetallicRoughness":{
			"baseColorFactor":[0.8,
			0.8,
			0.8,
			1.0],
			"metallicFactor":0.0,
			"roughnessFactor":0.5
		},
		"emissiveFactor":[0.0,
		0.0,
		0.0],
		"doubleSided":true,
		"name":"Mat"
	}],
	"meshes":[{
		"name":"Plane",
		"primitives":[{
			"attributes":{
				"POSITION":1
			},
			"material":0,
			"indices":0
		}]
	}],
	"bufferViews":[{
		"buffer":0,
		"byteOffset":0,
		"byteLength":76458,
		"target":34963
	},
	{
		"buffer":0,
		"byteOffset":76460,
		"byteLength":80028,
		"target":34962
	}],
	"buffers":[{
		"uri":"data:application/octet-stream;base64,",
		"byteLength":156488
	}]
}