{
	"nodes":[{
		"name":"Default",
		"children":[1,
		2,
		3,
		4,
		5,
		6,
		7]
	},
	{
		"name":"Default-Mat",
		"mesh":0
	},
	{
		"name":"Default-wire_134006006",
		"mesh":1
	},
	{
		"name":"Default-wire_224086086",
		"mesh":2
	},
	{
		"name":"Default-wire_028089177",
		"mesh":3
	},
	{
		"name":"Default-wire_134110008",
		"mesh":4
	},
	{
		"name":"Default-wire_229166215",
		"mesh":5
	},
	{
		"name":"Default-wire_177028149",
		"mesh":6
	}],
	"asset":{
		"version":"2.0",
		"generator":"Created using the official Cinema 4D glTF Exporter 1.000x284978"
	},
	"scenes":[{
		"nodes":[0]
	}],
	"meshes":[{
		"name":"Default-Mat",
		"primitives":[{
			"indices":0,
			"attributes":{
				"POSITION":1,
				"NORMAL":2,
				"TEXCOORD_0":3
			},
			"material":0
		}]
	},
	{
		"name":"Default-wire_134006006",
		"primitives":[{
			"indices":4,
			"attributes":{
				"POSITION":5,
				"NORMAL":6,
				"TEXCOORD_0":7
			},
			"material":1
		}]
	},
	{
		"name":"Default-wire_224086086",
		"primitives":[{
			"indices":8,
			"attributes":{
				"POSITION":9,
				"NORMAL":10,
				"TEXCOORD_0":11
			},
			"material":2
		}]
	},
	{
		"name":"Default-wire_028089177",
		"primitives":[{
			"indices":12,
			"attributes":{
				"POSITION":13,
				"NORMAL":14,
				"TEXCOORD_0":15
			},
			"material":3
		}]
	},
	{
		"name":"Default-wire_134110008",
		"primitives":[{
			"indices":16,
			"attributes":{
				"POSITION":17,
				"NORMAL":18,
				"TEXCOORD_0":19
			},
			"material":4
		}]
	},
	{
		"name":"Default-wire_229166215",
		"primitives":[{
			"indices":20,
			"attributes":{
				"POSITION":21,
				"NORMAL":22,
				"TEXCOORD_0":23
			},
			"material":5
		}]
	},
	{
		"name":"Default-wire_177028149",
		"primitives":[{
			"indices":24,
			"attributes":{
				"POSITION":25,
				"NORMAL":26,
				"TEXCOORD_0":27
			},
			"material":6
		}]
	}],
	"accessors":[{
		"bufferView":0,
		"count":8241,
		"type":"SCALAR",
		"componentType":5123,
		"byteOffset":0,
		"min":[0],
		"max":[7804]
	},
	{
		"bufferView":1,
		"count":7805,
		"type":"VEC3",
		"componentType":5126,
		"byteOffset":0,
		"min":[-11664.9345703125,
		2749.177490234375,
		-4343.70751953125],
		"max":[10973.0947265625,
		18204.50390625,
		4343.71875]
	},
	{
		"bufferView":1,
		"count":7805,
		"type":"VEC3",
		"componentType":5126,
		"byteOffset":12,
		"min":[-0.9998125433921814,
		-0.9826250672340393,
		-0.9999688267707825],
		"max":[0.9986875653266907,
		0.9999688267707825,
		0.9999688267707825]
	},
	{
		"bufferView":1,
		"count":7805,
		"type":"VEC2",
		"componentType":5126,
		"byteOffset":24,
		"min":[-78.0967025756836,
		-85.95199584960938],
		"max":[78.98419189453125,
		63.81939697265625]
	},
	{
		"bufferView":2,
		"count":2898,
		"type":"SCALAR",
		"componentType":5123,
		"byteOffset":0,
		"min":[0],
		"max":[2263]
	},
	{
		"bufferView":3,
		"count":2264,
		"type":"VEC3",
		"componentType":5126,
		"byteOffset":0,
		"min":[-12018.1220703125,
		-0.0007999999797903001,
		-4070.7890625],
		"max":[11762.9794921875,
		9798.69921875,
		0.01119999960064888]
	},
	{
		"bufferView":3,
		"count":2264,
		"type":"VEC3",
		"componentType":5126,
		"byteOffset":12,
		"min":[-1.0,
		-0.9994062781333923,
		-0.9979375600814819],
		"max":[1.0,
		0.9995625615119934,
		0.9332500696182251]
	},
	{
		"bufferView":3,
		"count":2264,
		"type":"VEC2",
		"componentType":5126,
		"byteOffset":24,
		"min":[-3.74180006980896,
		-7.891300201416016],
		"max":[7.9664998054504398,
		4.820199966430664]
	},
	{
		"bufferView":4,
		"count":2256,
		"type":"SCALAR",
		"componentType":5123,
		"byteOffset":0,
		"min":[0],
		"max":[2105]
	},
	{
		"bufferView":5,
		"count":2106,
		"type":"VEC3",
		"componentType":5126,
		"byteOffset":0,
		"min":[-11664.9345703125,
		1939.985595703125,
		-9558.8740234375],
		"max":[12018.119140625,
		18204.50390625,
		0.20069999992847444]
	},
	{
		"bufferView":5,
		"count":2106,
		"type":"VEC3",
		"componentType":5126,
		"byteOffset":12,
		"min":[-0.9995625615119934,
		-0.9998750686645508,
		-0.9995625615119934],
		"max":[0.9998437762260437,
		0.9995625615119934,
		0.9957500696182251]
	},
	{
		"bufferView":5,
		"count":2106,
		"type":"VEC2",
		"componentType":5126,
		"byteOffset":24,
		"min":[-77.91349792480469,
		-85.81539916992188],
		"max":[80.69979858398438,
		64.90019226074219]
	},
	{
		"bufferView":6,
		"count":588,
		"type":"SCALAR",
		"componentType":5123,
		"byteOffset":0,
		"min":[0],
		"max":[107]
	},
	{
		"bufferView":7,
		"count":108,
		"type":"VEC3",
		"componentType":5126,
		"byteOffset":0,
		"min":[-3481.955078125,
		3225.105712890625,
		3991.95458984375],
		"max":[-2657.611572265625,
		3628.524169921875,
		4070.78857421875]
	},
	{
		"bufferView":7,
		"count":108,
		"type":"VEC3",
		"componentType":5126,
		"byteOffset":12,
		"min":[-0.8700000643730164,
		-0.7773438096046448,
		0.25068750977516177],
		"max":[0.2446250170469284,
		0.9508438110351563,
		0.9979375600814819]
	},
	{
		"bufferView":7,
		"count":108,
		"type":"VEC2",
		"componentType":5126,
		"byteOffset":24,
		"min":[0.0,
		1.0],
		"max":[0.0,
		1.0]
	},
	{
		"bufferView":8,
		"count":54,
		"type":"SCALAR",
		"componentType":5123,
		"byteOffset":0,
		"min":[0],
		"max":[35]
	},
	{
		"bufferView":9,
		"count":36,
		"type":"VEC3",
		"componentType":5126,
		"byteOffset":0,
		"min":[-11616.837890625,
		1939.9847412109376,
		-0.20090000331401826],
		"max":[-4896.33251953125,
		3277.513671875,
		3697.55810546875]
	},
	{
		"bufferView":9,
		"count":36,
		"type":"VEC3",
		"componentType":5126,
		"byteOffset":12,
		"min":[-0.9995625615119934,
		-0.028343752026557924,
		-0.006312500219792128],
		"max":[-0.20225000381469727,
		-0.005781250074505806,
		0.9792500734329224]
	},
	{
		"bufferView":9,
		"count":36,
		"type":"VEC2",
		"componentType":5126,
		"byteOffset":24,
		"min":[-12.131500244140625,
		-4.558499336242676],
		"max":[21.486698150634767,
		0.2824999690055847]
	},
	{
		"bufferView":10,
		"count":2313,
		"type":"SCALAR",
		"componentType":5123,
		"byteOffset":0,
		"min":[0],
		"max":[2158]
	},
	{
		"bufferView":11,
		"count":2159,
		"type":"VEC3",
		"componentType":5126,
		"byteOffset":0,
		"min":[-12018.12109375,
		0.0005000000237487257,
		0.0],
		"max":[11762.98046875,
		9798.69921875,
		4041.828125]
	},
	{
		"bufferView":11,
		"count":2159,
		"type":"VEC3",
		"componentType":5126,
		"byteOffset":12,
		"min":[-1.0,
		-0.9994062781333923,
		-0.9332500696182251],
		"max":[1.0,
		0.9995625615119934,
		0.9957500696182251]
	},
	{
		"bufferView":11,
		"count":2159,
		"type":"VEC2",
		"componentType":5126,
		"byteOffset":24,
		"min":[-3.74180006980896,
		-7.891300201416016],
		"max":[7.9664998054504398,
		4.820199966430664]
	},
	{
		"bufferView":12,
		"count":2178,
		"type":"SCALAR",
		"componentType":5123,
		"byteOffset":0,
		"min":[0],
		"max":[2043]
	},
	{
		"bufferView":13,
		"count":2044,
		"type":"VEC3",
		"componentType":5126,
		"byteOffset":0,
		"min":[-11664.9326171875,
		2456.5625,
		-0.19920000433921815],
		"max":[12018.1220703125,
		18204.50390625,
		9558.873046875]
	},
	{
		"bufferView":13,
		"count":2044,
		"type":"VEC3",
		"componentType":5126,
		"byteOffset":12,
		"min":[-0.9943438172340393,
		-0.9998750686645508,
		-0.9957500696182251],
		"max":[0.9998437762260437,
		0.9995625615119934,
		0.999125063419342]
	},
	{
		"bufferView":13,
		"count":2044,
		"type":"VEC2",
		"componentType":5126,
		"byteOffset":24,
		"min":[-78.0967025756836,
		-85.95199584960938],
		"max":[80.69979858398438,
		64.90019226074219]
	}],
	"bufferViews":[{
		"buffer":0,
		"byteOffset":0,
		"byteLength":16482,
		"target":34963
	},
	{
		"buffer":0,
		"byteOffset":16484,
		"byteLength":249760,
		"target":34962,
		"byteStride":32
	},
	{
		"buffer":1,
		"byteOffset":0,
		"byteLength":5796,
		"target":34963
	},
	{
		"buffer":1,
		"byteOffset":5796,
		"byteLength":72448,
		"target":34962,
		"byteStride":32
	},
	{
		"buffer":2,
		"byteOffset":0,
		"byteLength":4512,
		"target":34963
	},
	{
		"buffer":2,
		"byteOffset":4512,
		"byteLength":67392,
		"target":34962,
		"byteStride":32
	},
	{
		"buffer":3,
		"byteOffset":0,
		"byteLength":1176,
		"target":34963
	},
	{
		"buffer":3,
		"byteOffset":1176,
		"byteLength":3456,
		"target":34962,
		"byteStride":32
	},
	{
		"buffer":4,
		"byteOffset":0,
		"byteLength":108,
		"target":34963
	},
	{
		"buffer":4,
		"byteOffset":108,
		"byteLength":1152,
		"target":34962,
		"byteStride":32
	},
	{
		"buffer":5,
		"byteOffset":0,
		"byteLength":4626,
		"target":34963
	},
	{
		"buffer":5,
		"byteOffset":4628,
		"byteLength":69088,
		"target":34962,
		"byteStride":32
	},
	{
		"buffer":6,
		"byteOffset":0,
		"byteLength":4356,
		"target":34963
	},
	{
		"buffer":6,
		"byteOffset":4356,
		"byteLength":65408,
		"target":34962,
		"byteStride":32
	}],
	"buffers":[{
		"uri":"data:application/octet-stream;base64,",
		"byteLength":266244
	},
	{
		"uri":"data:application/octet-stream;base64,",
		"byteLength":78244
	},
	{
		"uri":"data:application/octet-stream;base64,",
		"byteLength":71904
	},
	{
		"uri":"data:application/octet-stream;base64,",
		"byteLength":4632
	},
	{
		"uri":"data:application/octet-stream;base64,",
		"byteLength":1260
	},
	{
		"uri":"data:application/octet-stream;base64,",
		"byteLength":73716
	},
	{
		"uri":"data:application/octet-stream;base64,",
		"byteLength":69764
	}],
	"materials":[{
		"pbrMetallicRoughness":{
			"baseColorFactor":[0.039200000000000009,
			0.06729333333333323,
			0.28,
			1.0],
			"metallicFactor":0.0,
			"roughnessFactor":0.5
		},
		"emissiveFactor":[0.0,
		0.0,
		0.0],
		"alphaMode":"OPAQUE",
		"doubleSided":false,
		"name":"Mat"
	},
	{
		"pbrMetallicRoughness":{
			"baseColorFactor":[1.0,
			1.0,
			1.0,
			1.0],
			"metallicFactor":0.0,
			"roughnessFactor":0.5
		},
		"emissiveFactor":[0.0,
		0.0,
		0.0],
		"alphaMode":"OPAQUE",
		"doubleSided":false,
		"name":"wire_134006006"
	},
	{
		"pbrMetallicRoughness":{
			"baseColorFactor":[1.0,
			1.0,
			1.0,
			1.0],
			"metallicFactor":0.0,
			"roughnessFactor":0.5
		},
		"emissiveFactor":[0.0,
		0.0,
		0.0],
		"alphaMode":"OPAQUE",
		"doubleSided":false,
		"name":"wire_224086086"
	},
	{
		"pbrMetallicRoughness":{
			"baseColorFactor":[1.0,
			1.0,
			1.0,
			1.0],
			"metallicFactor":0.0,
			"roughnessFactor":0.5
		},
		"emissiveFactor":[0.0,
		0.0,
		0.0],
		"alphaMode":"OPAQUE",
		"doubleSided":false,
		"name":"wire_028089177"
	},
	{
		"pbrMetallicRoughness":{
			"baseColorFactor":[1.0,
			1.0,
			1.0,
			1.0],
			"metallicFactor":0.0,
			"roughnessFactor":0.5
		},
		"emissiveFactor":[0.0,
		0.0,
		0.0],
		"alphaMode":"OPAQUE",
		"doubleSided":false,
		"name":"wire_134110008"
	},
	{
		"pbrMetallicRoughness":{
			"baseColorFactor":[1.0,
			1.0,
			1.0,
			1.0],
			"metallicFactor":0.0,
			"roughnessFactor":0.5
		},
		"emissiveFactor":[0.0,
		0.0,
		0.0],
		"alphaMode":"OPAQUE",
		"doubleSided":false,
		"name":"wire_229166215"
	},
	{
		"pbrMetallicRoughness":{
			"baseColorFactor":[1.0,
			1.0,
			1.0,
			1.0],
			"metallicFactor":0.0,
			"roughnessFactor":0.5
		},
		"emissiveFactor":[0.0,
		0.0,
		0.0],
		"alphaMode":"OPAQUE",
		"doubleSided":false,
		"name":"wire_177028149"
	}]
}