{
	"buffers":[{
		"uri":"data:application/octet-stream;base64,",
		"byteLength":29176
	},
	{
		"uri":"data:application/octet-stream;base64,",
		"byteLength":9784
	},
	{
		"uri":"data:application/octet-stream;base64,",
		"byteLength":55128
	},
	{
		"uri":"data:application/octet-stream;base64,",
		"byteLength":59568
	},
	{
		"uri":"data:application/octet-stream;base64,",
		"byteLength":13488
	}],
	"asset":{
		"version":"2.0",
		"generator":"Created using the official Cinema 4D glTF Exporter 1.000x284978"
	},
	"scenes":[{
		"nodes":[0]
	}],
	"nodes":[{
		"name":"Whale_Shark.obj",
		"children":[1,
		5]
	},
	{
		"name":"Cube_Cube.001",
		"children":[2,
		3,
		4]
	},
	{
		"name":"Cube_Cube.001-Material.002",
		"mesh":0
	},
	{
		"name":"Cube_Cube.001-Mat",
		"mesh":1
	},
	{
		"name":"Cube_Cube.001-Mat",
		"mesh":2
	},
	{
		"name":"Sphere",
		"children":[6,
		7]
	},
	{
		"name":"Sphere-Material",
		"mesh":3
	},
	{
		"name":"Sphere-Material.001",
		"mesh":4
	}],
	"materials":[{
		"pbrMetallicRoughness":{
			"baseColorFactor":[1.0,
			1.0,
			1.0,
			1.0],
			"metallicFactor":0.0,
			"roughnessFactor":0.5
		},
		"emissiveFactor":[0.0,
		0.0,
		0.0],
		"alphaMode":"OPAQUE",
		"doubleSided":false,
		"name":"Material.002"
	},
	{
		"pbrMetallicRoughness":{
			"baseColorFactor":[0.20799999999999997,
			0.24346666666666673,
			0.32,
			1.0],
			"metallicFactor":0.0,
			"roughnessFactor":0.5
		},
		"emissiveFactor":[0.0,
		0.0,
		0.0],
		"alphaMode":"OPAQUE",
		"doubleSided":false,
		"name":"Mat"
	},
	{
		"pbrMetallicRoughness":{
			"baseColorFactor":[1.0,
			1.0,
			1.0,
			1.0],
			"metallicFactor":0.0,
			"roughnessFactor":0.5
		},
		"emissiveFactor":[0.0,
		0.0,
		0.0],
		"alphaMode":"OPAQUE",
		"doubleSided":false,
		"name":"Material"
	},
	{
		"pbrMetallicRoughness":{
			"baseColorFactor":[1.0,
			1.0,
			1.0,
			1.0],
			"metallicFactor":0.0,
			"roughnessFactor":0.5
		},
		"emissiveFactor":[0.0,
		0.0,
		0.0],
		"alphaMode":"OPAQUE",
		"doubleSided":false,
		"name":"Material.001"
	}],
	"meshes":[{
		"name":"Cube_Cube.001-Material.002",
		"primitives":[{
			"attributes":{
				"POSITION":1,
				"NORMAL":2,
				"TEXCOORD_0":3
			},
			"indices":0,
			"material":0
		}]
	},
	{
		"name":"Cube_Cube.001-Mat",
		"primitives":[{
			"attributes":{
				"POSITION":5,
				"NORMAL":6,
				"TEXCOORD_0":7
			},
			"indices":4,
			"material":1
		}]
	},
	{
		"name":"Cube_Cube.001-Mat",
		"primitives":[{
			"attributes":{
				"POSITION":9,
				"NORMAL":10,
				"TEXCOORD_0":11
			},
			"indices":8,
			"material":1
		}]
	},
	{
		"name":"Sphere-Material",
		"primitives":[{
			"attributes":{
				"POSITION":13,
				"NORMAL":14
			},
			"indices":12,
			"material":2
		}]
	},
	{
		"name":"Sphere-Material.001",
		"primitives":[{
			"attributes":{
				"POSITION":16,
				"NORMAL":17
			},
			"indices":15,
			"material":3
		}]
	}],
	"accessors":[{
		"bufferView":0,
		"max":[715],
		"type":"SCALAR",
		"componentType":5123,
		"count":3132,
		"byteOffset":0,
		"min":[0]
	},
	{
		"bufferView":1,
		"max":[3.828326940536499,
		5.923961162567139,
		8.660482406616211],
		"type":"VEC3",
		"componentType":5126,
		"count":716,
		"byteOffset":0,
		"min":[-3.828326940536499,
		-3.8867199420928957,
		-19.984188079833986]
	},
	{
		"bufferView":1,
		"max":[0.9987813234329224,
		0.9994375705718994,
		0.9998750686645508],
		"type":"VEC3",
		"componentType":5126,
		"count":716,
		"byteOffset":12,
		"min":[-0.9988750219345093,
		-0.9999688267707825,
		-0.9942188262939453]
	},
	{
		"bufferView":1,
		"max":[0.9937999844551086,
		0.979699969291687],
		"type":"VEC2",
		"componentType":5126,
		"count":716,
		"byteOffset":24,
		"min":[0.018599998205900193,
		0.01599999889731407]
	},
	{
		"bufferView":2,
		"max":[247],
		"type":"SCALAR",
		"componentType":5123,
		"count":924,
		"byteOffset":0,
		"min":[0]
	},
	{
		"bufferView":3,
		"max":[1.1932100057601929,
		3.8607280254364015,
		-0.5707259774208069],
		"type":"VEC3",
		"componentType":5126,
		"count":248,
		"byteOffset":0,
		"min":[-1.0793850421905518,
		0.1911190003156662,
		-13.672216415405274]
	},
	{
		"bufferView":3,
		"max":[0.9920625686645508,
		0.9998750686645508,
		0.8403750658035278],
		"type":"VEC3",
		"componentType":5126,
		"count":248,
		"byteOffset":12,
		"min":[-0.999625027179718,
		-0.014250000938773156,
		-0.8719375133514404]
	},
	{
		"bufferView":3,
		"max":[0.9865999817848206,
		0.8176000118255615],
		"type":"VEC2",
		"componentType":5126,
		"count":248,
		"byteOffset":24,
		"min":[0.06520000100135803,
		0.030299998819828035]
	},
	{
		"bufferView":4,
		"max":[1319],
		"type":"SCALAR",
		"componentType":5123,
		"count":6444,
		"byteOffset":0,
		"min":[0]
	},
	{
		"bufferView":5,
		"max":[4.0062642097473148,
		5.923961162567139,
		8.701066970825196],
		"type":"VEC3",
		"componentType":5126,
		"count":1320,
		"byteOffset":0,
		"min":[-4.0062642097473148,
		-3.972007989883423,
		-19.984188079833986]
	},
	{
		"bufferView":5,
		"max":[0.999625027179718,
		0.9998750686645508,
		0.999625027179718],
		"type":"VEC3",
		"componentType":5126,
		"count":1320,
		"byteOffset":12,
		"min":[-0.9988750219345093,
		-0.9999688267707825,
		-0.9999688267707825]
	},
	{
		"bufferView":5,
		"max":[0.9502000212669373,
		0.9803999662399292],
		"type":"VEC2",
		"componentType":5126,
		"count":1320,
		"byteOffset":24,
		"min":[0.01759999990463257,
		0.038099996745586398]
	},
	{
		"bufferView":6,
		"max":[1665],
		"type":"SCALAR",
		"componentType":5123,
		"count":9792,
		"byteOffset":0,
		"min":[0]
	},
	{
		"bufferView":7,
		"max":[2.3524839878082277,
		0.3581860065460205,
		8.542946815490723],
		"type":"VEC3",
		"componentType":5126,
		"count":1666,
		"byteOffset":0,
		"min":[-2.352483034133911,
		-0.05926800146698952,
		8.152654647827149]
	},
	{
		"bufferView":7,
		"max":[1.0,
		1.0,
		0.8250625133514404],
		"type":"VEC3",
		"componentType":5126,
		"count":1666,
		"byteOffset":12,
		"min":[-1.0,
		-1.0,
		-1.0]
	},
	{
		"bufferView":8,
		"max":[385],
		"type":"SCALAR",
		"componentType":5123,
		"count":2112,
		"byteOffset":0,
		"min":[0]
	},
	{
		"bufferView":9,
		"max":[2.259718894958496,
		0.2654210031032562,
		8.579404830932618],
		"type":"VEC3",
		"componentType":5126,
		"count":386,
		"byteOffset":0,
		"min":[-2.259718894958496,
		0.03349599987268448,
		8.542946815490723]
	},
	{
		"bufferView":9,
		"max":[0.5650937557220459,
		0.5649687647819519,
		1.0],
		"type":"VEC3",
		"componentType":5126,
		"count":386,
		"byteOffset":12,
		"min":[-0.5650937557220459,
		-0.5649687647819519,
		0.8249688148498535]
	}],
	"bufferViews":[{
		"buffer":0,
		"byteOffset":0,
		"byteLength":6264,
		"target":34963
	},
	{
		"buffer":0,
		"byteOffset":6264,
		"byteLength":22912,
		"target":34962,
		"byteStride":32
	},
	{
		"buffer":1,
		"byteOffset":0,
		"byteLength":1848,
		"target":34963
	},
	{
		"buffer":1,
		"byteOffset":1848,
		"byteLength":7936,
		"target":34962,
		"byteStride":32
	},
	{
		"buffer":2,
		"byteOffset":0,
		"byteLength":12888,
		"target":34963
	},
	{
		"buffer":2,
		"byteOffset":12888,
		"byteLength":42240,
		"target":34962,
		"byteStride":32
	},
	{
		"buffer":3,
		"byteOffset":0,
		"byteLength":19584,
		"target":34963
	},
	{
		"buffer":3,
		"byteOffset":19584,
		"byteLength":39984,
		"target":34962,
		"byteStride":24
	},
	{
		"buffer":4,
		"byteOffset":0,
		"byteLength":4224,
		"target":34963
	},
	{
		"buffer":4,
		"byteOffset":4224,
		"byteLength":9264,
		"target":34962,
		"byteStride":24
	}]
}